<svg width="24" height="25" viewBox="0 0 24 25" fill="none" xmlns="http://www.w3.org/2000/svg">
    <g clip-path="url(#clip0_233_218)">
    <path fill-rule="evenodd" clip-rule="evenodd" d="M23.5 12.3302C23.5 5.93987 18.3515 0.759766 12.0014 0.759766C5.64848 0.761203 0.5 5.93987 0.5 12.3316C0.5 18.1054 4.7056 22.8916 10.2019 23.7598V15.6748H7.28415V12.3316H10.2048V9.78039C10.2048 6.88131 11.9224 5.28014 14.5484 5.28014C15.8075 5.28014 17.1226 5.5058 17.1226 5.5058V8.35169H15.6724C14.2451 8.35169 13.7995 9.24427 13.7995 10.1598V12.3302H16.9875L16.4787 15.6734H13.7981V23.7583C19.2944 22.8902 23.5 18.1039 23.5 12.3302Z" fill="#31A0FE"/>
    </g>
    <defs>
    <clipPath id="clip0_233_218">
    <rect width="24" height="24" fill="white" transform="translate(0 0.759766)"/>
    </clipPath>
    </defs>
    </svg>
    