<svg width="24" height="25" viewBox="0 0 24 25" fill="none" xmlns="http://www.w3.org/2000/svg">
    <path d="M12.5 1.75977C9.51488 1.75977 9.1395 1.77352 7.96663 1.82577C6.79375 1.88077 5.99487 2.06502 5.295 2.33727C4.56088 2.61339 3.89593 3.04653 3.34663 3.60639C2.7871 4.15597 2.35402 4.82085 2.0775 5.55477C1.80525 6.25327 1.61963 7.05352 1.566 8.22227C1.51375 9.39789 1.5 9.77189 1.5 12.7611C1.5 15.7476 1.51375 16.1216 1.566 17.2945C1.621 18.466 1.80525 19.2649 2.0775 19.9648C2.35938 20.688 2.73475 21.3013 3.34663 21.9131C3.95713 22.525 4.57037 22.9018 5.29363 23.1823C5.99487 23.4545 6.79238 23.6401 7.96388 23.6938C9.13813 23.746 9.51213 23.7598 12.5 23.7598C15.4879 23.7598 15.8605 23.746 17.0347 23.6938C18.2049 23.6388 19.0065 23.4545 19.7064 23.1823C20.44 22.906 21.1045 22.4729 21.6534 21.9131C22.2652 21.3013 22.6406 20.688 22.9225 19.9648C23.1934 19.2649 23.379 18.466 23.434 17.2945C23.4862 16.1216 23.5 15.7476 23.5 12.7598C23.5 9.77189 23.4862 9.39789 23.434 8.22364C23.379 7.05352 23.1934 6.25327 22.9225 5.55477C22.646 4.82083 22.2129 4.15594 21.6534 3.60639C21.1042 3.04632 20.4392 2.61315 19.705 2.33727C19.0037 2.06502 18.2035 1.87939 17.0334 1.82577C15.8591 1.77352 15.4865 1.75977 12.4973 1.75977H12.5014H12.5ZM11.5141 3.74252H12.5014C15.4384 3.74252 15.7863 3.75214 16.9454 3.80577C18.0179 3.85389 18.6009 4.03402 18.9886 4.18389C19.5015 4.38327 19.8686 4.62252 20.2536 5.00752C20.6386 5.39252 20.8765 5.75827 21.0759 6.27252C21.2271 6.65889 21.4059 7.24189 21.454 8.31439C21.5076 9.47352 21.5186 9.82139 21.5186 12.757C21.5186 15.6926 21.5076 16.0419 21.454 17.201C21.4059 18.2735 21.2257 18.8551 21.0759 19.2429C20.8995 19.7205 20.618 20.1524 20.2522 20.5065C19.8672 20.8915 19.5015 21.1294 18.9873 21.3288C18.6023 21.48 18.0192 21.6588 16.9454 21.7083C15.7863 21.7605 15.4384 21.7729 12.5014 21.7729C9.56438 21.7729 9.21513 21.7605 8.056 21.7083C6.9835 21.6588 6.40188 21.48 6.01412 21.3288C5.53631 21.1527 5.10405 20.8717 4.74913 20.5065C4.38303 20.1518 4.10112 19.7195 3.92412 19.2415C3.77425 18.8551 3.59413 18.2721 3.546 17.1996C3.49375 16.0405 3.48275 15.6926 3.48275 12.7543C3.48275 9.81727 3.49375 9.47077 3.546 8.31164C3.5955 7.23914 3.77425 6.65614 3.9255 6.26839C4.12488 5.75552 4.36412 5.38839 4.74913 5.00339C5.13412 4.61839 5.49988 4.38052 6.01412 4.18114C6.40188 4.02989 6.9835 3.85114 8.056 3.80164C9.07075 3.75489 9.464 3.74114 11.5141 3.73977V3.74252ZM18.3726 5.56852C18.1993 5.56852 18.0276 5.60266 17.8675 5.66899C17.7073 5.73533 17.5618 5.83256 17.4392 5.95513C17.3167 6.07771 17.2194 6.22322 17.1531 6.38337C17.0868 6.54352 17.0526 6.71517 17.0526 6.88852C17.0526 7.06186 17.0868 7.23351 17.1531 7.39366C17.2194 7.55381 17.3167 7.69932 17.4392 7.8219C17.5618 7.94447 17.7073 8.0417 17.8675 8.10804C18.0276 8.17437 18.1993 8.20852 18.3726 8.20852C18.7227 8.20852 19.0585 8.06944 19.306 7.8219C19.5536 7.57435 19.6926 7.2386 19.6926 6.88852C19.6926 6.53843 19.5536 6.20268 19.306 5.95513C19.0585 5.70759 18.7227 5.56852 18.3726 5.56852ZM12.5014 7.11127C11.7521 7.09958 11.008 7.23706 10.3123 7.51571C9.61671 7.79436 8.98346 8.20861 8.44946 8.73435C7.91546 9.26008 7.49138 9.8868 7.20191 10.578C6.91244 11.2692 6.76336 12.0111 6.76336 12.7605C6.76336 13.5098 6.91244 14.2517 7.20191 14.9429C7.49138 15.6341 7.91546 16.2608 8.44946 16.7866C8.98346 17.3123 9.61671 17.7265 10.3123 18.0052C11.008 18.2838 11.7521 18.4213 12.5014 18.4096C13.9844 18.3865 15.3988 17.7811 16.4393 16.7242C17.4799 15.6673 18.0631 14.2436 18.0631 12.7605C18.0631 11.2773 17.4799 9.85358 16.4393 8.79667C15.3988 7.73976 13.9844 7.1344 12.5014 7.11127ZM12.5014 9.09264C13.474 9.09264 14.4067 9.479 15.0944 10.1667C15.7821 10.8544 16.1685 11.7872 16.1685 12.7598C16.1685 13.7323 15.7821 14.6651 15.0944 15.3528C14.4067 16.0405 13.474 16.4269 12.5014 16.4269C11.5288 16.4269 10.596 16.0405 9.90833 15.3528C9.22061 14.6651 8.83425 13.7323 8.83425 12.7598C8.83425 11.7872 9.22061 10.8544 9.90833 10.1667C10.596 9.479 11.5288 9.09264 12.5014 9.09264Z" fill="#31A0FE"/>
    </svg>
    