<svg width="24" height="21" viewBox="0 0 24 21" fill="none" xmlns="http://www.w3.org/2000/svg">
    <path d="M8.41075 19.7598C16.713 19.7598 21.2546 12.8329 21.2546 6.83645C21.2546 6.64262 21.2546 6.44601 21.2464 6.25218C22.1306 5.60765 22.8937 4.8097 23.5 3.89569C22.6741 4.26238 21.7988 4.50406 20.9026 4.61288C21.8466 4.04472 22.5536 3.15076 22.8923 2.09717C22.0054 2.62624 21.0346 2.99764 20.0226 3.19511C19.3423 2.46549 18.4419 1.98214 17.4611 1.81992C16.4803 1.65771 15.4737 1.82569 14.5973 2.29784C13.7209 2.76999 13.0236 3.51996 12.6134 4.43159C12.2031 5.34321 12.1029 6.36562 12.3281 7.34043C10.5334 7.24981 8.77762 6.78034 7.17468 5.96245C5.57175 5.14457 4.15744 3.99654 3.0235 2.59283C2.44784 3.59397 2.27216 4.7782 2.53214 5.90503C2.79211 7.03186 3.46825 8.01682 4.42325 8.6599C3.70762 8.63541 3.00772 8.44191 2.38 8.095V8.15731C2.38123 9.20607 2.74205 10.2222 3.40145 11.0341C4.06086 11.8459 4.9784 12.4035 5.999 12.6128C5.61161 12.7202 5.21144 12.7738 4.80963 12.772C4.52635 12.7728 4.24365 12.7464 3.96537 12.6931C4.25383 13.5959 4.8155 14.3852 5.57171 14.9505C6.32793 15.5159 7.24081 15.8288 8.1825 15.8457C6.58276 17.1109 4.60668 17.797 2.5725 17.7937C2.21407 17.7952 1.85588 17.7744 1.5 17.7314C3.56458 19.0568 5.96228 19.7605 8.41075 19.7598Z" fill="#31A0FE"/>
    </svg>
    