<svg width="40" height="40" viewBox="0 0 40 40" fill="none" xmlns="http://www.w3.org/2000/svg">
    <path d="M7 30V30.5H7.5H9.5V32H5.5V7.5V7H5H2.5H2V7.5V35V35.5H2.5H9.5V37H0.5V5.5H5H5.5V5V3H12.5C13.5938 3 14.6405 3.16764 15.6427 3.50169C16.6423 3.83491 17.5759 4.33513 18.4446 5.00527L18.7522 5.24256L19.0582 5.00313C19.9128 4.33431 20.8388 3.83469 21.8378 3.50169C22.8394 3.16783 23.8926 3 25 3H32V5V5.5H32.5H37V20.2206L35.5 19.5409V7.5V7H35H32.5H32V7.5V17.9494L30.5 17.258V5V4.5H30H25C24.0179 4.5 23.0737 4.66622 22.1706 4.9997C21.2664 5.33355 20.4342 5.82672 19.6752 6.47535L19.5 6.62505V6.85547V18.4081L18 19.0878V6.85547V6.62457L17.8242 6.47485C17.0774 5.83868 16.2518 5.35259 15.349 5.01923C14.4473 4.6863 13.499 4.51383 12.5069 4.50005L12.5069 4.5H12.5H7.5H7V5V30ZM26.25 20.5492L38.792 26.2501L33.5235 28.6464L32.9657 28.9001L33.3261 29.3956L33.4773 29.6036C33.7204 29.9638 33.9056 30.3524 34.0335 30.7711C34.1702 31.2183 34.2757 31.6715 34.3502 32.1308C34.4246 32.5895 34.4682 33.0618 34.4806 33.548C34.4907 33.9388 34.4968 34.3136 34.499 34.6726L26.25 38.8155L18.0009 34.6725C18.0031 34.3007 18.0093 33.9128 18.0194 33.5086C18.0318 33.0127 18.0814 32.5093 18.1686 31.9982C18.2552 31.491 18.3783 31.0186 18.5367 30.58C18.6893 30.1574 18.9004 29.7643 19.1711 29.3995L19.5394 28.9031L18.977 28.6466L15.2074 26.9279L14.5 26.6053V27.3828V38.25H13V26.572L26.25 20.5492ZM26.4573 22.2794L26.25 22.1849L26.0427 22.2794L18.3278 25.795L17.3294 26.25L18.3278 26.705L26.0427 30.2206L26.25 30.3151L26.4573 30.2206L34.1722 26.705L35.1706 26.25L34.1722 25.795L26.4573 22.2794ZM26.0258 37.029L26.2503 37.1416L26.4747 37.0287L32.7247 33.8842L33.012 33.7396L32.9996 33.4183C32.9861 33.0662 32.9588 32.7426 32.9169 32.4488C32.8721 32.1354 32.79 31.8299 32.6713 31.5331C32.566 31.27 32.4607 31.0133 32.3554 30.763C32.2365 30.4807 32.0708 30.1804 31.8641 29.8636L31.6294 29.5037L31.2383 29.6816L26.25 31.9507L21.2617 29.6816L20.8629 29.5002L20.6307 29.8717C20.4284 30.1954 20.2618 30.4928 20.1341 30.7625C20.0107 31.0229 19.9008 31.284 19.8043 31.5459C19.6976 31.8354 19.6299 32.1381 19.5999 32.4526C19.5734 32.731 19.547 33.0541 19.5208 33.4214L19.497 33.7543L19.7954 33.904L26.0258 37.029Z" fill="#252B42" stroke="#252B42"/>
    </svg>
    