<svg width="37" height="37" viewBox="0 0 37 37" fill="none" xmlns="http://www.w3.org/2000/svg">
    <rect x="0.738281" y="0.77832" width="35.3011" height="35.3011" rx="17.6506" fill="#D5F4D5"/>
    <g clip-path="url(#clip0_233_186)">
    <path d="M17.8247 9.73486V25.9145" stroke="black" stroke-width="1.47088" stroke-linecap="round" stroke-linejoin="round"/>
    <path d="M21.5015 12.6782H15.9857C15.303 12.6782 14.6483 12.9494 14.1655 13.4321C13.6828 13.9149 13.4116 14.5696 13.4116 15.2523C13.4116 15.9349 13.6828 16.5897 14.1655 17.0724C14.6483 17.5551 15.303 17.8263 15.9857 17.8263H19.6629C20.3455 17.8263 21.0003 18.0975 21.483 18.5802C21.9657 19.0629 22.2369 19.7177 22.2369 20.4003C22.2369 21.083 21.9657 21.7377 21.483 22.2205C21.0003 22.7032 20.3455 22.9744 19.6629 22.9744H13.4116" stroke="black" stroke-width="1.47088" stroke-linecap="round" stroke-linejoin="round"/>
    </g>
    <defs>
    <clipPath id="clip0_233_186">
    <rect width="17.6506" height="17.6506" fill="white" transform="translate(9 9)"/>
    </clipPath>
    </defs>
    </svg>
    