<svg width="40" height="40" viewBox="0 0 40 40" fill="none" xmlns="http://www.w3.org/2000/svg">
    <path d="M33.5983 10.424L35.0767 9.5H33.3333H6.66667H4.92327L6.40167 10.424L19.735 18.7573L20 18.923L20.265 18.7573L33.5983 10.424ZM33.3333 30.5H33.8333V30V13.3333V12.4312L33.0683 12.9093L20 21.077L6.93166 12.9093L6.16667 12.4312V13.3333V30V30.5H6.66667H33.3333ZM33.3333 7.16667C34.8905 7.16667 36.1667 8.44281 36.1667 10V30C36.1667 31.5572 34.8905 32.8333 33.3333 32.8333H6.66667C5.10947 32.8333 3.83333 31.5572 3.83333 30V10C3.83333 8.44281 5.10947 7.16667 6.66667 7.16667H33.3333Z" fill="white" stroke="white"/>
    </svg>
    