<svg width="40" height="40" viewBox="0 0 40 40" fill="none" xmlns="http://www.w3.org/2000/svg">
    <path d="M33.5983 10.424L35.0767 9.50002H33.3333H6.66666H4.92326L6.40166 10.424L19.735 18.7574L20 18.923L20.265 18.7574L33.5983 10.424ZM33.3333 30.5H33.8333V30V13.3334V12.4312L33.0683 12.9094L20 21.0771L6.93166 12.9094L6.16666 12.4312V13.3334V30V30.5H6.66666H33.3333ZM33.3333 7.16669C34.8905 7.16669 36.1667 8.44283 36.1667 10V30C36.1667 31.5572 34.8905 32.8334 33.3333 32.8334H6.66666C5.10947 32.8334 3.83333 31.5572 3.83333 30V10C3.83333 8.44283 5.10947 7.16669 6.66666 7.16669H33.3333Z" fill="white" stroke="white"/>
    </svg>
    