<svg width="40" height="40" viewBox="0 0 40 40" fill="none" xmlns="http://www.w3.org/2000/svg">
    <path d="M22.1251 22.9572C21.544 23.5384 20.8261 23.8335 20.0007 23.8337C20.0005 23.8337 20.0002 23.8337 19.9999 23.8337V23.3337C19.3066 23.3348 18.7166 23.092 18.2299 22.6053C17.7433 22.1187 17.4999 21.5281 17.4999 20.8337L22.1251 22.9572ZM22.1251 22.9572C22.7066 22.3758 23.0012 21.658 22.9999 20.8329M22.1251 22.9572L22.9999 20.8329M19.9991 17.8337C19.9994 17.8337 19.9997 17.8337 19.9999 17.8337V18.3337L19.9991 17.8337ZM19.9991 17.8337C20.8242 17.8323 21.5421 18.127 22.1235 18.7084M19.9991 17.8337L22.1235 18.7084M22.9999 20.8329C22.9997 20.0075 22.7047 19.2896 22.1235 18.7084M22.9999 20.8329C22.9999 20.8331 22.9999 20.8334 22.9999 20.8337H22.4999L22.1235 18.7084M3.83325 20.0009V20.0003V5.00033C3.83325 4.21745 4.1064 3.55929 4.66681 2.99888C5.22719 2.4385 5.88461 2.16605 6.66598 2.16699H6.66659H33.3333C34.1161 2.16699 34.7743 2.44015 35.3347 3.00055C35.8951 3.56093 36.1675 4.21835 36.1666 4.99972V5.00033V20.0003C36.1666 20.7832 35.8934 21.4414 35.333 22.0018C34.7726 22.5622 34.1152 22.8346 33.3339 22.8337H33.3333H28.6067C28.6909 22.4621 28.7518 22.0897 28.7891 21.7167C28.8296 21.3113 28.8423 20.9058 28.827 20.5003H33.3333H33.8333V20.0003V5.00033V4.50033H33.3333H6.66659H6.16659V5.00033V20.0003V20.5003H6.66659H11.1729C11.1576 20.9058 11.1702 21.3113 11.2107 21.7167C11.248 22.0897 11.3089 22.4621 11.3932 22.8337H6.66659C5.88371 22.8337 5.22554 22.5605 4.66514 22.0001C4.10476 21.4397 3.83231 20.7823 3.83325 20.0009ZM27.4999 7.167L27.5007 7.16699C28.0623 7.16609 28.5244 7.35696 28.9164 7.74888C29.3083 8.14083 29.4999 8.60382 29.4999 9.167V9.1678C29.5008 9.72935 29.31 10.1915 28.918 10.5834C28.5261 10.9754 28.0631 11.167 27.4999 11.167L27.4991 11.167C26.9376 11.1679 26.4754 10.977 26.0835 10.5851C25.6915 10.1932 25.4999 9.73017 25.4999 9.167V9.16619C25.499 8.60464 25.6899 8.14247 26.0818 7.75055C26.4738 7.35859 26.9367 7.167 27.4999 7.167ZM8.83325 36.6682V36.667V34.8337C8.83325 33.9605 9.07499 33.1521 9.56568 32.398C10.0579 31.6416 10.7018 31.0795 11.504 30.703L11.504 30.7029C12.8311 30.08 14.2121 29.6126 15.6478 29.3006C17.0852 28.9882 18.5355 28.8326 19.9996 28.8337H19.9999C21.4641 28.8337 22.9146 28.9898 24.3521 29.3023C25.7878 29.6143 27.1689 30.0812 28.496 30.7031C29.2994 31.0796 29.9438 31.6418 30.4358 32.398C30.9264 33.152 31.1676 33.9602 31.1666 34.8331V34.8337V36.667C31.1666 37.0136 31.055 37.2807 30.8341 37.5024C30.6142 37.723 30.3482 37.8345 30.0011 37.8337H29.9999H9.99992C9.65388 37.8337 9.38693 37.7219 9.16514 37.5001C8.94342 37.2784 8.83244 37.0124 8.83325 36.6682ZM11.1666 35.0003V35.5003H11.6666H28.3333H28.8333V35.0003V34.8337C28.8333 34.3959 28.7034 33.9905 28.4512 33.6303C28.206 33.28 27.8863 33.0131 27.4985 32.8368L27.4977 32.8364C26.3011 32.2951 25.0747 31.8815 23.8191 31.5961C22.5606 31.3101 21.2873 31.167 19.9999 31.167C18.7125 31.167 17.4393 31.3101 16.1808 31.5961C14.9251 31.8815 13.6988 32.2951 12.5022 32.8364L12.5014 32.8368C12.1135 33.0131 11.7938 33.28 11.5486 33.6303C11.2964 33.9905 11.1666 34.3959 11.1666 34.8337V35.0003ZM11.6666 13.3337C11.5856 13.3337 11.516 13.3093 11.4368 13.2301L9.27014 11.0634C9.19093 10.9842 9.16659 10.9146 9.16659 10.8337C9.16659 10.7527 9.19093 10.6831 9.27014 10.6039L11.4368 8.43721C11.516 8.358 11.5856 8.33366 11.6666 8.33366C11.7475 8.33366 11.8172 8.358 11.8964 8.43721L14.063 10.6039C14.1422 10.6831 14.1666 10.7527 14.1666 10.8337C14.1666 10.9146 14.1422 10.9842 14.063 11.0634L11.8964 13.2301C11.8172 13.3093 11.7475 13.3337 11.6666 13.3337ZM19.9999 26.167C18.5214 26.167 17.2736 25.6502 16.2285 24.6051C15.1834 23.56 14.6666 22.3122 14.6666 20.8337C14.6666 19.3551 15.1834 18.1073 16.2285 17.0622C17.2736 16.0171 18.5214 15.5003 19.9999 15.5003C21.4785 15.5003 22.7263 16.0171 23.7714 17.0622C24.8165 18.1073 25.3333 19.3551 25.3333 20.8337C25.3333 22.3122 24.8165 23.56 23.7714 24.6051C22.7263 25.6502 21.4785 26.167 19.9999 26.167Z" fill="#252B42" stroke="#252B42"/>
    </svg>
    