<svg width="40" height="40" viewBox="0 0 40 40" fill="none" xmlns="http://www.w3.org/2000/svg">
    <path d="M17.9198 33.0136L17.9191 33.0129C13.6176 29.1124 10.0874 25.9066 7.62663 22.8961C5.1714 19.8923 3.83325 17.144 3.83325 14.1667C3.83325 9.2934 7.64213 5.5 12.4999 5.5C15.2488 5.5 17.8953 6.78223 19.6205 8.79231L19.9999 9.23438L20.3793 8.79231C22.1045 6.78223 24.7511 5.5 27.4999 5.5C32.3577 5.5 36.1666 9.2934 36.1666 14.1667C36.1666 17.144 34.8284 19.8923 32.3732 22.8961C29.9125 25.9066 26.3822 29.1124 22.0807 33.0129L22.08 33.0136L19.9999 34.9072L17.9198 33.0136Z" fill="white" stroke="white"/>
    </svg>
    