<svg width="40" height="40" viewBox="0 0 40 40" fill="none" xmlns="http://www.w3.org/2000/svg">
    <path d="M28 15V14.5H27.5H10.625C10.2603 14.5 9.91059 14.3551 9.65273 14.0973C9.39487 13.8394 9.25 13.4897 9.25 13.125C9.25 12.7603 9.39487 12.4106 9.65273 12.1527C9.91059 11.8949 10.2603 11.75 10.625 11.75H29.375C29.7397 11.75 30.0894 11.8949 30.3473 12.1527C30.6051 12.4106 30.75 12.7603 30.75 13.125V26.875C30.75 27.2397 30.6051 27.5894 30.3473 27.8473C30.0894 28.1051 29.7397 28.25 29.375 28.25C29.0103 28.25 28.6606 28.1051 28.4027 27.8473C28.1449 27.5894 28 27.2397 28 26.875V15ZM22.0157 32.9285L22.0135 32.9217L22.011 32.9149C21.5839 31.729 20.8013 30.7038 19.77 29.9791C18.7387 29.2544 17.5089 28.8655 16.2484 28.8655C14.988 28.8655 13.7582 29.2544 12.7269 29.9791C11.6956 30.7038 10.913 31.729 10.4858 32.9149L10.4834 32.9217L10.4812 32.9285C10.391 33.2034 10.2164 33.4428 9.98233 33.6128C9.74822 33.7827 9.46648 33.8745 9.1772 33.875H6.25C5.55381 33.875 4.88613 33.5984 4.39384 33.1062C3.90156 32.6139 3.625 31.9462 3.625 31.25V8.75C3.625 8.05381 3.90156 7.38613 4.39384 6.89384C4.88613 6.40156 5.55381 6.125 6.25 6.125H33.75C34.4462 6.125 35.1139 6.40156 35.6062 6.89384C36.0984 7.38613 36.375 8.05381 36.375 8.75V31.25C36.375 31.9462 36.0984 32.6139 35.6062 33.1062C35.1139 33.5984 34.4462 33.875 33.75 33.875H23.322C23.3219 33.875 23.3219 33.875 23.3219 33.875C23.0322 33.8749 22.75 33.7834 22.5155 33.6134C22.2809 33.4435 22.106 33.2038 22.0157 32.9285ZM33.625 9.375V8.875H33.125H6.875H6.375V9.375V30.625V31.125H6.875H7.95625H8.25724L8.39811 30.859C9.1448 29.4491 10.2566 28.2657 11.6173 27.4327L12.0992 27.1377L11.7477 26.6952C11.0751 25.8485 10.6548 24.8292 10.5353 23.7544C10.4157 22.6796 10.6016 21.5928 11.0718 20.6189C11.5419 19.645 12.2772 18.8234 13.1931 18.2485C14.109 17.6736 15.1686 17.3686 16.25 17.3686C17.3314 17.3686 18.391 17.6736 19.3069 18.2485C20.2228 18.8234 20.9581 19.645 21.4282 20.6189C21.8984 21.5928 22.0843 22.6796 21.9647 23.7544C21.8452 24.8292 21.4249 25.8485 20.7523 26.6952L20.4008 27.1377L20.8827 27.4327C22.2434 28.2657 23.3552 29.4491 24.1019 30.859L24.2428 31.125H24.5438H33.125H33.625V30.625V9.375ZM16.25 26.125C16.8433 26.125 17.4234 25.9491 17.9167 25.6194C18.4101 25.2898 18.7946 24.8212 19.0216 24.2731C19.2487 23.7249 19.3081 23.1217 19.1924 22.5397C19.0766 21.9578 18.7909 21.4232 18.3713 21.0037C17.9518 20.5841 17.4172 20.2984 16.8353 20.1826C16.2533 20.0669 15.6501 20.1263 15.1019 20.3534C14.5538 20.5804 14.0852 20.9649 13.7556 21.4583C13.4259 21.9516 13.25 22.5317 13.25 23.125C13.25 23.9207 13.5661 24.6837 14.1287 25.2463C14.6913 25.8089 15.4543 26.125 16.25 26.125Z" fill="#252B42" stroke="#252B42"/>
    </svg>
    