<svg width="50" height="50" viewBox="0 0 50 50" fill="none" xmlns="http://www.w3.org/2000/svg">
    <g clip-path="url(#clip0_77_36)">
    <path d="M25.0002 45.833C27.2918 45.833 29.1668 43.958 29.1668 41.6663H20.8335C20.8335 43.958 22.7085 45.833 25.0002 45.833ZM37.5002 33.333V22.9163C37.5002 16.5205 34.1043 11.1663 28.1252 9.74967V8.33301C28.1252 6.60384 26.7293 5.20801 25.0002 5.20801C23.271 5.20801 21.8752 6.60384 21.8752 8.33301V9.74967C15.9168 11.1663 12.5002 16.4997 12.5002 22.9163V33.333L8.3335 37.4997V39.583H41.6668V37.4997L37.5002 33.333ZM33.3335 35.4163H16.6668V22.9163C16.6668 17.7497 19.8127 13.5413 25.0002 13.5413C30.1877 13.5413 33.3335 17.7497 33.3335 22.9163V35.4163Z" fill="#05042F"/>
    </g>
    <defs>
    <clipPath id="clip0_77_36">
    <rect width="50" height="50" fill="white"/>
    </clipPath>
    </defs>
    </svg>
    