<svg width="50" height="51" viewBox="0 0 50 51" fill="none" xmlns="http://www.w3.org/2000/svg">
    <g clip-path="url(#clip0_77_59)">
    <path d="M40.4791 27.0732C40.5624 26.4066 40.6249 25.7399 40.6249 25.0316C40.6249 24.3232 40.5624 23.6566 40.4791 22.9899L44.8749 19.5524C45.2707 19.2399 45.3749 18.6774 45.1249 18.2191L40.9582 11.0107C40.7707 10.6774 40.4166 10.4899 40.0416 10.4899C39.9166 10.4899 39.7916 10.5107 39.6874 10.5524L34.4999 12.6357C33.4166 11.8024 32.2499 11.1149 30.9791 10.5941L30.1874 5.07324C30.1249 4.57324 29.6874 4.19824 29.1666 4.19824H20.8332C20.3124 4.19824 19.8749 4.57324 19.8124 5.07324L19.0207 10.5941C17.7499 11.1149 16.5832 11.8232 15.4999 12.6357L10.3124 10.5524C10.1874 10.5107 10.0624 10.4899 9.93741 10.4899C9.58324 10.4899 9.22908 10.6774 9.04158 11.0107L4.87491 18.2191C4.60408 18.6774 4.72908 19.2399 5.12491 19.5524L9.52074 22.9899C9.43741 23.6566 9.37491 24.3441 9.37491 25.0316C9.37491 25.7191 9.43741 26.4066 9.52074 27.0732L5.12491 30.5107C4.72908 30.8232 4.62491 31.3857 4.87491 31.8441L9.04158 39.0524C9.22908 39.3857 9.58324 39.5732 9.95824 39.5732C10.0832 39.5732 10.2082 39.5524 10.3124 39.5107L15.4999 37.4274C16.5832 38.2607 17.7499 38.9482 19.0207 39.4691L19.8124 44.9899C19.8749 45.4899 20.3124 45.8649 20.8332 45.8649H29.1666C29.6874 45.8649 30.1249 45.4899 30.1874 44.9899L30.9791 39.4691C32.2499 38.9482 33.4166 38.2399 34.4999 37.4274L39.6874 39.5107C39.8124 39.5524 39.9374 39.5732 40.0624 39.5732C40.4166 39.5732 40.7707 39.3857 40.9582 39.0524L45.1249 31.8441C45.3749 31.3857 45.2707 30.8232 44.8749 30.5107L40.4791 27.0732ZM36.3541 23.5107C36.4374 24.1566 36.4582 24.5941 36.4582 25.0316C36.4582 25.4691 36.4166 25.9274 36.3541 26.5524L36.0624 28.9066L37.9166 30.3649L40.1666 32.1149L38.7082 34.6357L36.0624 33.5732L33.8957 32.6982L32.0207 34.1149C31.1249 34.7816 30.2707 35.2816 29.4166 35.6357L27.2082 36.5316L26.8749 38.8857L26.4582 41.6982H23.5416L23.1457 38.8857L22.8124 36.5316L20.6041 35.6357C19.7082 35.2607 18.8749 34.7816 18.0416 34.1566L16.1457 32.6982L13.9374 33.5941L11.2916 34.6566L9.83324 32.1357L12.0832 30.3857L13.9374 28.9274L13.6457 26.5732C13.5832 25.9274 13.5416 25.4482 13.5416 25.0316C13.5416 24.6149 13.5832 24.1357 13.6457 23.5107L13.9374 21.1566L12.0832 19.6982L9.83324 17.9482L11.2916 15.4274L13.9374 16.4899L16.1041 17.3649L17.9791 15.9482C18.8749 15.2816 19.7291 14.7816 20.5832 14.4274L22.7916 13.5316L23.1249 11.1774L23.5416 8.36491H26.4374L26.8332 11.1774L27.1666 13.5316L29.3749 14.4274C30.2707 14.8024 31.1041 15.2816 31.9374 15.9066L33.8332 17.3649L36.0416 16.4691L38.6874 15.4066L40.1457 17.9274L37.9166 19.6982L36.0624 21.1566L36.3541 23.5107ZM24.9999 16.6982C20.3957 16.6982 16.6666 20.4274 16.6666 25.0316C16.6666 29.6357 20.3957 33.3649 24.9999 33.3649C29.6041 33.3649 33.3332 29.6357 33.3332 25.0316C33.3332 20.4274 29.6041 16.6982 24.9999 16.6982ZM24.9999 29.1982C22.7082 29.1982 20.8332 27.3232 20.8332 25.0316C20.8332 22.7399 22.7082 20.8649 24.9999 20.8649C27.2916 20.8649 29.1666 22.7399 29.1666 25.0316C29.1666 27.3232 27.2916 29.1982 24.9999 29.1982Z" fill="#7A798E"/>
    </g>
    <defs>
    <clipPath id="clip0_77_59">
    <rect width="50" height="50" fill="white" transform="translate(0 0.03125)"/>
    </clipPath>
    </defs>
    </svg>
    